<?xml version="1.0" encoding="utf-8"?>
<!-- Generator: Adobe Illustrator 16.0.0, SVG Export Plug-In . SVG Version: 6.00 Build 0)  -->
<!DOCTYPE svg PUBLIC "-//W3C//DTD SVG 1.1//EN" "http://www.w3.org/Graphics/SVG/1.1/DTD/svg11.dtd">
<svg version="1.1" id="Layer_1" xmlns="http://www.w3.org/2000/svg" xmlns:xlink="http://www.w3.org/1999/xlink" x="0px" y="0px"
	 width="141.73px" height="141.73px" viewBox="0 0 141.73 141.73" enable-background="new 0 0 141.73 141.73" xml:space="preserve">
<rect fill="#B8292F" width="141.73" height="141.73"/>
<g>
	<g>
		<path fill="#FFFFFF" d="M120.464,64.806l0.786-4.04h-16.16l-1.961,10.099l3.253,4.038l-4.826,4.043l-0.394,2.02h16.162
			l0.785-4.039h-10.1l0.787-4.04h10.097l0.785-4.041h-10.1l0.787-4.04H120.464z M42.56,70.889
			c1.389-7.079-2.188-10.124-6.767-10.124H24.405L20.48,80.962h11.724C38.748,80.962,41.375,76.92,42.56,70.889z M36.583,70.874
			c-0.545,2.936-2.188,6.048-5.896,6.051h-3.363l2.357-12.122h3.427C34.879,64.803,37.562,65.576,36.583,70.874z M100.716,72.887
			l0.784-4.041H91.402l0.782-4.04h10.1l0.787-4.04H86.91l-3.927,20.199h16.162l0.785-4.039h-10.1l0.784-4.04H100.716z
			 M73.994,60.768l-12.395,17.06l-0.003-17.061h-7.54L39.381,80.966h6.677l2.109-3.032h7.481l-0.002,3.032h10.356l9.6-13.353
			L75.59,80.966h5.952l-0.001-20.198H73.994z M55.649,73.895h-4.524l4.529-6.29L55.649,73.895z"/>
	</g>
</g>
</svg>
